<?xml version="1.0" standalone="no"?>
<!DOCTYPE svg PUBLIC "-//W3C//DTD SVG 20010904//EN"
 "http://www.w3.org/TR/2001/REC-SVG-20010904/DTD/svg10.dtd">
<svg version="1.0" xmlns="http://www.w3.org/2000/svg"
 width="1024.000000pt" height="1024.000000pt" viewBox="0 0 1024.000000 1024.000000"
 preserveAspectRatio="xMidYMid meet">
<metadata>
Created by potrace 1.14, written by Peter Selinger 2001-2017
</metadata>
<g transform="translate(0.000000,1024.000000) scale(0.100000,-0.100000)"
fill="#000000" stroke="none">
<path d="M0 10201 c0 -30 4 -38 17 -37 12 1 21 -13 31 -49 8 -27 17 -52 21
-55 3 -3 14 -22 23 -42 20 -43 35 -48 47 -15 58 147 71 162 148 177 37 7 53 5
70 -6 12 -8 31 -14 41 -14 23 0 109 37 117 50 18 30 121 -15 147 -64 31 -58
26 -166 -10 -229 -23 -38 -77 -52 -148 -37 -67 14 -96 8 -113 -23 -19 -35 -67
-53 -106 -38 -17 6 -37 11 -44 11 -7 0 -19 7 -27 15 -10 10 -35 15 -75 15 -49
0 -59 -3 -60 -17 0 -15 -3 -14 -16 5 -9 12 -26 22 -39 22 l-24 0 0 -281 c0
-252 2 -281 16 -275 9 3 21 6 27 6 7 0 17 10 22 23 8 17 18 22 46 22 20 0 45
8 55 17 37 32 145 80 170 74 12 -3 34 -1 48 5 20 10 32 8 63 -7 21 -10 53 -17
73 -16 31 3 41 -2 77 -42 62 -69 73 -87 73 -126 0 -24 -8 -42 -25 -59 -14 -13
-25 -30 -25 -39 0 -8 -11 -30 -25 -48 -31 -41 -116 -69 -179 -60 -23 3 -82 8
-132 10 -50 3 -110 12 -133 22 l-41 16 0 64 c0 71 1 70 -72 58 l-38 -7 0 -592
c0 -556 1 -593 18 -599 9 -3 24 -11 33 -17 14 -10 20 -9 34 4 9 9 26 17 38 17
26 0 92 -43 106 -68 15 -29 23 -135 12 -164 -21 -56 -104 -105 -135 -79 -7 6
-29 8 -49 4 -34 -5 -37 -4 -37 18 0 13 4 41 9 62 7 30 5 41 -10 60 -18 22 -18
19 -19 -145 0 -106 4 -168 10 -168 6 0 10 4 10 8 0 13 72 32 121 32 57 0 186
-63 234 -114 39 -41 46 -55 56 -115 16 -100 -22 -159 -137 -216 -41 -20 -66
-25 -127 -25 -70 0 -79 -2 -119 -33 l-43 -33 -3 -192 c-1 -106 0 -192 2 -192
3 0 16 4 29 9 19 7 34 5 63 -9 29 -15 49 -18 90 -14 94 11 154 -41 154 -133 0
-26 -8 -43 -34 -69 -39 -39 -84 -45 -156 -19 -46 16 -59 12 -89 -28 -7 -10
-24 -22 -37 -27 l-24 -10 0 -550 0 -550 23 1 c12 0 31 -1 42 -3 14 -2 25 8 40
37 38 75 54 80 238 76 67 -1 124 -86 98 -148 -10 -26 -133 -113 -158 -113 -5
0 -22 13 -36 30 -28 31 -66 53 -109 64 -20 4 -30 1 -40 -12 -20 -29 -58 -46
-71 -33 -6 6 -15 11 -19 11 -4 0 -8 -386 -8 -857 0 -650 3 -854 12 -845 7 7
27 9 52 6 38 -5 42 -3 59 25 10 17 24 31 31 31 8 0 17 10 20 22 6 22 7 22 20
5 12 -15 18 -16 35 -8 33 18 61 13 73 -14 6 -13 15 -22 19 -19 8 4 59 -63 59
-79 0 -4 11 -20 25 -35 43 -47 25 -126 -38 -169 -41 -28 -92 -29 -134 -3 l-32
19 -56 -25 c-54 -25 -57 -25 -90 -9 -19 9 -35 20 -35 25 0 6 -4 10 -10 10 -6
0 -10 -44 -10 -111 0 -102 1 -110 18 -103 23 11 137 7 161 -6 11 -5 38 -10 60
-10 53 0 124 -35 145 -71 10 -16 23 -29 29 -30 7 0 -12 -7 -40 -14 -56 -15
-88 -10 -112 19 -15 18 -66 22 -76 6 -10 -16 -41 -12 -82 10 -21 11 -53 22
-71 26 -31 6 -32 6 -32 -28 l0 -34 78 -16 c42 -9 95 -21 117 -27 22 -6 62 -11
88 -11 27 0 70 -9 97 -21 27 -11 57 -19 67 -17 23 4 28 39 10 75 -20 39 -3 53
66 53 40 0 58 -5 70 -18 22 -24 22 -26 -7 -57 -31 -34 -25 -56 32 -99 49 -39
69 -44 78 -21 8 21 44 18 74 -6 55 -45 103 -70 128 -69 52 4 70 0 104 -23 23
-16 55 -26 95 -29 33 -3 75 -14 93 -23 19 -10 57 -19 84 -22 28 -2 56 -8 62
-14 6 -5 40 -11 75 -15 35 -3 80 -10 99 -15 19 -5 45 -9 57 -9 42 0 17 57 -77
170 -154 186 -184 262 -182 460 0 123 20 252 41 273 6 6 11 21 11 33 0 13 4
25 9 28 4 3 11 20 15 37 17 88 128 269 213 347 59 55 164 102 259 114 71 10
95 9 165 -6 124 -27 315 -132 374 -206 11 -14 42 -51 69 -84 l49 -59 18 35
c24 47 45 53 84 27 29 -20 31 -25 24 -58 -13 -63 -21 -81 -35 -81 -8 0 -14 -8
-14 -19 0 -20 23 -70 37 -80 5 -3 13 -19 19 -36 8 -25 14 -30 39 -27 16 2 34
11 41 19 18 25 72 0 76 -35 2 -22 9 -28 36 -30 21 -2 41 3 52 13 10 9 24 15
32 14 50 -6 78 2 95 31 9 17 22 30 29 30 6 0 18 8 27 18 15 16 15 20 -1 43 -9
14 -36 43 -60 64 -42 37 -45 38 -75 26 -99 -41 -155 -21 -178 61 -16 59 10
114 60 128 49 13 48 14 79 -16 55 -53 93 -52 132 1 32 43 90 64 190 66 86 3
122 -11 180 -70 36 -36 95 -83 111 -89 5 -2 9 -13 9 -25 0 -17 2 -19 9 -8 7
11 12 9 22 -10 8 -13 14 -33 15 -44 3 -35 -67 -148 -82 -132 -4 4 -3 17 2 29
16 40 6 75 -24 81 -21 4 -35 -3 -69 -36 -24 -23 -43 -46 -43 -51 0 -6 14 -26
31 -44 28 -30 29 -34 15 -53 -11 -17 -12 -24 -3 -34 10 -10 20 -10 52 3 45 18
62 36 88 96 l17 41 -6 -35 c-15 -82 -53 -138 -157 -231 -108 -97 -127 -109
-185 -110 -60 -1 -164 -49 -180 -83 -19 -38 -90 -68 -177 -74 -59 -3 -79 0
-125 21 -62 28 -81 43 -130 107 -19 25 -37 47 -40 50 -3 3 -21 34 -39 70 -19
36 -41 71 -48 78 -7 7 -13 18 -13 24 0 6 -11 26 -25 44 -14 18 -25 40 -25 48
0 9 -4 16 -10 16 -5 0 -10 5 -10 11 0 6 -12 29 -28 52 -15 23 -31 49 -37 58
-48 76 -75 106 -138 153 -111 84 -199 100 -314 59 -78 -28 -64 -59 50 -107 72
-31 133 -78 122 -97 -4 -6 5 -23 20 -39 15 -16 24 -33 21 -38 -3 -6 1 -17 9
-25 8 -9 15 -22 15 -29 0 -7 6 -22 14 -33 7 -11 19 -46 26 -77 16 -71 10 -80
-64 -98 -48 -11 -60 -11 -98 4 -24 10 -60 28 -80 41 -41 27 -88 42 -88 28 0
-6 -12 -15 -26 -22 -24 -11 -31 -8 -78 27 -28 21 -67 44 -86 51 -32 10 -36 10
-52 -11 -38 -49 -61 -170 -62 -328 l-1 -116 52 -104 c65 -131 83 -176 83 -206
0 -18 7 -24 33 -28 58 -9 201 -28 252 -33 223 -22 272 -30 292 -50 l20 -20
-29 -18 c-20 -11 -26 -20 -19 -25 19 -11 -8 -27 -59 -35 -25 -4 -63 -14 -85
-22 -24 -9 -76 -14 -132 -14 -68 0 -94 -3 -103 -14 -7 -8 -21 -15 -30 -15 -10
0 -21 -8 -23 -17 -4 -14 -5 -12 -6 5 0 12 -1 25 0 29 1 11 -32 22 -69 22 -24
1 -39 -7 -60 -30 -28 -31 -28 -31 -65 -16 -20 9 -37 21 -37 26 0 7 -8 7 -26 1
-37 -15 -66 -12 -115 9 -24 10 -69 22 -99 25 -30 4 -66 14 -80 23 -13 9 -64
24 -113 34 -49 10 -98 26 -108 35 -10 9 -31 17 -46 18 -15 1 -34 5 -40 9 -8 5
-13 4 -13 -2 0 -17 -19 -13 -37 9 -10 11 -23 20 -29 20 -6 0 -17 7 -24 15 -8
9 -29 15 -56 15 -23 0 -46 5 -49 10 -3 6 -13 10 -22 10 -9 0 -26 9 -38 20 -12
11 -52 27 -91 36 -38 10 -82 27 -99 39 -16 12 -61 30 -100 40 -38 10 -74 20
-80 24 -5 3 -18 7 -29 8 -10 2 -58 17 -106 33 -48 17 -94 28 -103 24 -16 -6
-17 -45 -16 -448 l0 -441 90 -75 c108 -90 233 -184 274 -206 101 -54 227 -114
270 -127 92 -29 219 -47 360 -50 140 -3 140 -3 137 -26 -1 -13 -15 -40 -31
-60 -15 -20 -32 -43 -37 -53 -16 -28 -102 -117 -137 -141 -58 -40 -84 -62 -96
-85 -16 -30 -32 -28 -71 13 -19 19 -39 35 -45 35 -6 0 -24 -14 -40 -30 -16
-17 -38 -30 -49 -30 -24 1 -66 32 -66 50 0 6 -7 24 -15 40 -19 37 -48 39 -77
5 -43 -50 -128 -17 -128 50 0 26 -36 75 -55 75 -7 0 -27 -14 -43 -30 -17 -17
-37 -30 -44 -30 -20 0 -53 38 -71 82 -9 20 -28 44 -42 54 -27 18 -28 18 -56
-14 l-29 -32 0 -395 c0 -377 1 -395 18 -395 11 0 27 -9 36 -19 15 -16 16 -31
10 -104 l-7 -86 -28 6 -29 6 0 -157 0 -156 5120 0 5120 0 0 590 c0 325 -4 590
-8 590 -5 0 -24 21 -42 48 -19 26 -38 49 -42 50 -4 2 -8 7 -8 12 0 5 -18 36
-40 69 -42 62 -77 93 -114 98 -67 11 -118 53 -196 163 -9 13 -34 25 -65 32
-50 10 -107 47 -189 122 -43 39 -44 39 -128 56 -32 6 -58 15 -58 19 0 20 -63
42 -118 40 -54 -3 -82 2 -127 21 -56 23 -93 43 -118 62 -21 17 -47 24 -112 29
-68 5 -93 12 -140 39 l-56 32 -72 -12 c-91 -15 -124 -14 -152 4 -37 24 -90 29
-167 15 -40 -8 -80 -13 -88 -12 -8 1 -28 3 -44 5 -46 4 -42 26 13 82 43 43 52
59 49 82 -6 59 -96 26 -126 -46 -19 -45 -24 -48 -94 -56 -32 -4 -67 -18 -100
-40 -28 -19 -58 -32 -67 -29 -9 3 -30 6 -48 8 -37 5 -244 107 -285 142 -16 14
-34 25 -40 25 -5 0 -27 13 -48 30 -21 17 -42 30 -46 30 -5 0 -38 27 -74 60
-35 33 -67 60 -71 60 -6 0 -45 36 -166 152 -37 37 -52 55 -153 189 -47 62
-105 137 -129 167 -24 31 -64 89 -88 130 -24 41 -50 81 -56 88 -29 33 -37 45
-67 103 -17 34 -35 59 -39 56 -5 -3 -12 1 -14 7 -13 31 -6 -19 18 -126 23
-108 75 -262 125 -371 182 -394 628 -803 975 -895 117 -31 129 -52 57 -100
-52 -35 -100 -90 -107 -122 -7 -28 -78 -98 -101 -98 -6 0 -32 -11 -56 -25 -47
-26 -187 -48 -210 -33 -7 4 -24 8 -37 8 -13 0 -30 8 -37 17 -7 10 -14 13 -14
7 0 -15 -95 0 -126 21 -14 9 -28 13 -33 11 -11 -7 -78 13 -142 44 -26 12 -88
6 -99 -10 -3 -4 -27 -19 -53 -35 -27 -15 -67 -51 -89 -79 -21 -28 -46 -60 -55
-70 -30 -37 -34 -75 -12 -135 11 -31 26 -80 34 -109 16 -61 26 -78 91 -147 53
-56 84 -103 84 -125 0 -8 27 -32 59 -52 33 -20 67 -50 77 -67 10 -16 28 -32
41 -35 34 -9 63 -46 63 -81 0 -29 25 -65 44 -65 30 0 77 -140 68 -201 -5 -35
-42 -102 -63 -114 -6 -4 -53 -8 -104 -9 -76 -1 -96 2 -112 17 -11 9 -41 24
-68 34 -28 9 -61 30 -78 49 -16 19 -38 34 -48 34 -23 0 -69 28 -69 42 0 6 -7
25 -16 43 -11 24 -33 41 -79 65 -79 40 -98 60 -99 106 -2 37 -16 51 -59 59
-63 12 -78 18 -101 42 -24 24 -26 30 -20 94 l7 68 -29 7 c-43 10 -74 32 -74
53 0 14 -10 21 -35 25 -47 9 -65 43 -52 100 8 36 6 47 -17 86 -14 25 -49 70
-77 100 l-50 55 5 85 c3 47 8 99 12 117 5 24 0 41 -17 69 -22 36 -22 41 -12
124 16 124 75 222 217 358 116 112 121 123 85 201 -66 141 -78 170 -89 206 -6
22 -20 59 -31 82 -10 24 -19 46 -19 49 0 3 -6 20 -14 37 -8 18 -21 55 -30 82
-54 169 -90 273 -99 290 -6 11 -12 31 -13 45 -2 14 -8 52 -13 85 -5 33 -14 92
-20 130 -18 109 -29 233 -24 259 3 14 -2 69 -11 123 -8 54 -18 148 -22 208
-13 208 -20 256 -41 268 -9 6 -13 17 -9 32 4 14 0 27 -9 35 -8 7 -15 19 -15
26 0 9 -12 14 -34 14 -37 0 -34 12 -39 -165 -2 -63 12 -738 18 -840 7 -130 20
-942 19 -1145 -2 -189 -9 -277 -38 -496 -8 -58 -45 -191 -64 -235 -11 -24 -26
-62 -32 -84 -29 -96 -94 -224 -143 -280 -35 -40 -52 -51 -78 -53 -19 -1 -53
-7 -76 -13 -36 -10 -47 -9 -68 5 -20 13 -38 15 -90 10 -52 -5 -65 -4 -65 7 -1
20 -32 55 -56 63 -30 9 -68 -25 -82 -73 -13 -40 -36 -57 -65 -45 -27 10 -30
42 -8 85 12 22 21 53 21 69 0 28 -22 60 -42 60 -21 0 -68 -35 -74 -55 -9 -29
-45 -65 -66 -65 -9 0 -25 11 -34 25 -16 25 -16 27 11 55 24 25 27 34 20 67
-11 58 -22 73 -56 73 -44 0 -65 -15 -72 -49 -7 -33 -39 -71 -61 -71 -21 0 -66
47 -66 70 0 11 9 29 20 40 34 34 23 93 -22 116 -35 18 -43 14 -68 -35 -16 -33
-41 -50 -72 -51 -3 0 -16 15 -27 33 -15 25 -19 43 -14 70 4 28 1 42 -13 58
-16 18 -26 20 -84 14 -72 -7 -115 4 -124 32 -3 10 -7 38 -8 61 -1 30 -7 46
-19 53 -18 9 -49 3 -49 -11 0 -16 -68 -50 -86 -44 -35 13 -74 57 -80 93 -9 52
-19 67 -53 81 -70 29 -44 132 61 242 32 34 58 64 58 68 0 4 7 13 16 20 8 8 22
27 30 44 7 17 22 45 33 62 10 16 22 41 26 54 9 29 55 81 66 75 4 -3 7 1 6 8
-1 42 5 59 23 64 11 3 17 9 15 14 -7 10 30 80 38 72 4 -3 9 13 13 36 4 24 10
38 14 31 5 -8 10 -2 14 15 4 14 4 30 1 35 -3 4 0 10 6 12 7 2 13 17 15 33 2
15 8 31 14 35 7 4 13 19 13 34 1 15 7 24 14 22 7 -3 10 5 8 20 -1 13 2 27 7
30 4 3 6 9 4 13 -3 4 8 24 24 43 17 21 28 43 24 51 -3 8 -1 18 5 22 6 3 11 17
11 31 0 13 5 24 10 24 6 0 10 11 10 25 0 34 23 118 34 126 5 4 5 12 2 18 -12
19 23 109 45 116 14 5 19 16 19 40 0 24 5 34 20 38 26 7 25 21 -2 35 -19 9
-13 11 37 10 33 0 52 -2 43 -5 -19 -5 -25 -33 -8 -33 5 0 13 -12 16 -26 5 -20
9 -23 16 -12 6 8 7 2 3 -19 -3 -17 -2 -40 4 -50 10 -20 30 -183 21 -183 -7 0
-4 -94 5 -127 14 -53 14 -82 -1 -76 -16 6 -19 -13 -4 -22 6 -4 8 -16 5 -26 -4
-11 -2 -25 3 -32 12 -15 22 -195 11 -199 -4 -2 -3 -25 2 -53 5 -27 7 -97 4
-155 -4 -58 -8 -130 -9 -160 -2 -30 -7 -93 -11 -140 l-7 -86 52 -62 c40 -47
58 -62 78 -62 35 0 84 -31 124 -76 34 -38 76 -64 106 -64 58 0 80 61 112 309
17 127 18 190 13 570 -3 234 -7 703 -9 1042 -2 508 0 624 11 663 8 26 10 44 5
41 -16 -10 3 69 19 82 9 7 13 13 9 13 -14 0 33 93 57 114 14 12 25 27 25 33 0
6 11 20 25 31 14 11 25 25 25 31 0 6 8 11 18 11 21 0 102 68 102 86 0 16 40
102 40 87 0 -7 5 -13 10 -13 15 0 12 84 -5 116 -8 16 -12 37 -9 47 3 10 -2 27
-11 37 -10 11 -14 26 -11 38 8 23 -3 54 -15 46 -5 -3 -9 2 -9 11 0 8 -7 18
-15 21 -8 4 -15 13 -15 20 0 17 -2 19 -65 89 -30 33 -41 52 -32 57 13 8 15 6
-37 33 -39 20 -52 38 -82 110 -9 22 -20 49 -25 60 -5 11 -13 32 -19 48 -5 15
-14 27 -19 27 -5 0 -13 10 -17 23 -18 59 -95 217 -128 262 -13 17 -26 37 -29
45 -7 14 -21 37 -89 138 -15 23 -36 46 -47 52 -11 5 -23 20 -26 32 -8 25 -87
103 -190 188 -37 30 -74 64 -83 74 -10 11 -32 36 -50 57 -25 29 -34 48 -35 81
-1 24 -6 46 -12 50 -15 11 55 78 82 78 13 0 23 5 23 10 0 6 31 10 74 10 41 0
78 -4 81 -10 3 -5 17 -10 30 -10 12 0 48 -13 79 -29 31 -17 56 -28 56 -26 0
15 233 -130 275 -170 23 -23 47 -39 54 -37 7 2 15 -5 18 -16 3 -12 19 -26 36
-31 44 -16 68 8 63 63 -5 52 -16 86 -27 86 -5 0 -9 6 -9 12 0 21 -64 148 -75
148 -6 0 -15 9 -20 20 -46 90 -62 114 -105 160 -28 29 -50 61 -50 70 0 10 -26
45 -59 77 -32 33 -62 69 -65 81 -4 12 -11 22 -16 22 -5 0 -32 23 -59 50 -28
28 -55 50 -60 50 -6 0 -14 6 -18 13 -4 7 -19 21 -33 30 -43 30 -170 158 -170
172 0 17 -83 105 -99 105 -10 0 -29 30 -53 83 -7 15 -18 27 -25 27 -8 0 -18
11 -25 25 -6 13 -15 22 -19 19 -4 -2 -13 5 -19 16 -6 11 -17 20 -24 20 -8 0
-19 13 -24 30 -6 16 -23 41 -38 55 -21 20 -24 28 -15 39 9 11 8 15 -4 20 -8 3
-15 14 -15 25 0 11 -9 25 -21 31 -16 9 -18 14 -9 25 7 8 9 23 4 37 l-8 23 -8
-25 c-5 -18 -6 -12 -3 20 2 25 1 37 -3 28 -5 -13 -11 -15 -22 -8 -13 8 -13 11
-1 19 15 9 6 35 -9 26 -5 -3 -12 6 -16 21 -4 17 -2 29 6 34 10 6 10 17 1 53
-20 82 -6 233 26 269 8 9 13 25 11 35 -3 10 4 35 14 55 10 21 18 42 18 49 0 6
11 22 24 34 13 12 27 32 31 45 14 43 209 226 315 296 103 67 244 138 335 168
28 9 59 23 69 31 20 15 20 15 0 30 -10 8 -31 17 -45 20 -28 6 -69 45 -88 83
-7 12 -31 34 -54 49 -92 58 -91 94 10 200 18 19 35 43 38 54 11 33 54 69 83
69 47 0 101 -20 113 -41 8 -15 8 -38 0 -83 -18 -102 -14 -184 9 -213 24 -31
25 -64 4 -104 -8 -17 -13 -34 -10 -37 4 -3 37 3 74 14 70 20 90 44 57 68 -21
15 -30 87 -17 142 7 30 5 52 -6 87 -20 64 -6 112 48 161 33 30 47 36 85 36 67
0 79 -24 70 -137 -7 -81 -6 -89 14 -107 19 -17 21 -18 27 -2 6 17 0 114 -12
166 -12 58 90 114 166 91 64 -19 88 -52 95 -135 10 -109 11 -259 2 -283 -9
-25 -2 -28 88 -37 45 -5 56 -4 43 4 -13 8 -18 24 -18 52 0 34 6 46 40 77 27
25 47 57 64 102 24 65 44 98 99 171 48 62 106 69 152 18 18 -20 20 -37 21
-173 1 -84 5 -171 9 -195 8 -49 -5 -71 -56 -92 -16 -7 -29 -16 -29 -20 0 -3
46 -24 103 -45 230 -87 423 -192 542 -294 39 -34 95 -78 125 -100 30 -22 77
-62 105 -90 27 -28 53 -51 57 -51 4 0 8 20 8 44 0 55 12 88 41 115 27 25 85
28 116 6 33 -23 53 -95 42 -146 -6 -24 -7 -71 -3 -105 5 -50 3 -68 -12 -92
l-17 -30 70 -104 c89 -132 194 -323 239 -435 29 -73 57 -173 90 -321 17 -78
22 -316 8 -447 -23 -227 -29 -263 -154 -915 -71 -369 -133 -593 -234 -843
-193 -480 -204 -742 -48 -1102 137 -316 185 -383 236 -324 15 18 26 21 71 17
34 -3 62 -12 80 -27 28 -21 32 -22 240 -16 l211 7 53 -51 c33 -30 52 -55 48
-64 -3 -7 -2 -19 2 -26 6 -8 21 7 46 46 99 152 118 180 165 229 28 30 55 54
59 54 4 0 16 9 26 20 92 102 370 170 512 125 159 -50 176 -59 256 -134 49 -47
134 -162 166 -226 13 -27 33 -61 43 -74 10 -13 18 -31 18 -40 0 -9 17 -52 38
-96 21 -44 45 -101 52 -127 l14 -47 29 21 c21 15 38 19 68 15 33 -4 42 -1 62
22 36 43 43 44 77 11 22 -21 37 -29 49 -24 30 13 61 16 86 10 25 -6 56 -52 48
-73 -2 -6 1 -14 6 -18 7 -4 11 12 11 45 0 58 18 74 50 45 32 -29 25 -185 -8
-185 -5 0 -16 16 -25 36 -15 31 -42 43 -42 18 0 -5 -14 -24 -31 -42 -33 -35
-58 -35 -69 -1 -4 13 -16 19 -36 19 -16 0 -29 -4 -29 -8 0 -13 -36 -52 -47
-52 -5 0 -20 10 -32 21 l-23 22 -43 -21 c-41 -20 -44 -20 -59 -3 -9 10 -16 26
-16 37 0 10 -4 26 -10 34 -11 17 -11 18 -35 -87 -14 -60 -24 -80 -59 -116 -64
-68 -160 -76 -191 -17 -13 25 -21 28 -82 34 -120 10 -198 23 -223 36 -14 7
-45 14 -70 16 -25 1 -58 10 -75 18 -21 11 -44 14 -76 10 -44 -6 -47 -4 -99 43
-50 46 -53 51 -46 85 12 65 74 105 153 98 20 -1 113 33 113 42 0 2 -28 33 -63
68 -34 36 -75 91 -91 122 -23 45 -34 58 -52 58 -31 0 -79 -51 -111 -118 -14
-32 -32 -64 -39 -72 -7 -8 -18 -37 -23 -63 -6 -26 -15 -67 -21 -91 -15 -70
-85 -182 -178 -283 -18 -20 -31 -41 -29 -47 12 -35 114 -62 506 -136 330 -63
823 -41 1041 45 103 40 429 138 487 146 38 5 95 13 128 19 33 5 81 10 108 10
l47 0 0 965 c0 869 -2 968 -16 990 -14 21 -14 33 -4 82 7 32 14 85 17 119 4
53 1 65 -21 99 -14 21 -26 45 -26 54 0 29 22 94 36 109 21 20 18 847 -2 877
-18 25 -18 53 1 89 13 25 15 193 15 1314 0 707 -3 1282 -6 1279 -12 -12 -63
27 -78 58 -16 36 -15 289 2 320 6 11 26 36 46 54 l36 35 0 120 0 121 -60 23
c-56 21 -61 22 -97 7 -21 -9 -56 -16 -78 -17 -67 -1 -346 23 -372 33 -17 6
-31 5 -48 -7 -35 -23 -82 -21 -108 4 -29 27 -39 27 -55 2 -24 -39 -154 -11
-217 47 -33 30 -45 35 -88 35 -40 -1 -59 -7 -93 -31 -41 -30 -45 -31 -157 -31
-79 0 -126 5 -150 15 -20 8 -54 15 -75 15 -26 0 -53 9 -78 26 -92 61 -128 118
-126 196 l1 48 -405 0 -404 0 0 -34 c0 -49 -20 -60 -109 -61 -80 0 -141 18
-141 41 0 8 -4 14 -9 14 -5 0 -8 8 -7 18 1 16 -17 17 -232 20 -230 2 -233 2
-227 -18 17 -54 -29 -88 -95 -70 -41 11 -56 35 -45 70 6 19 2 20 -123 20
l-130 0 5 -38 c7 -50 -12 -66 -67 -57 -42 7 -63 31 -64 70 -1 19 -9 20 -135
23 l-133 3 6 -27 c4 -16 1 -34 -7 -48 -14 -20 -28 -23 -84 -17 -15 1 -35 59
-22 66 32 20 -34 25 -358 25 l-355 0 6 -25 c10 -39 -8 -62 -54 -69 -56 -9 -82
9 -78 54 l3 35 -71 3 -71 3 -7 -40 c-7 -46 -29 -63 -76 -57 -39 4 -51 21 -48
61 l3 30 -107 3 -108 3 0 -39 c0 -48 -24 -72 -71 -72 -42 0 -81 32 -78 63 3
48 9 47 -195 47 l-194 0 11 -30 c10 -27 9 -33 -15 -57 -26 -25 -27 -26 -52 -9
-26 17 -34 40 -17 50 5 3 7 15 4 26 -5 20 -14 20 -511 20 l-505 0 18 -20 c17
-19 17 -23 3 -54 -19 -39 -61 -53 -95 -30 -28 18 -29 30 -3 72 l20 32 -109 0
-109 0 -7 -49 c-8 -57 -34 -86 -86 -96 -31 -6 -39 -3 -67 26 -26 27 -32 41
-32 76 0 42 -1 43 -34 43 l-33 0 9 -42 c5 -24 12 -79 15 -124 9 -129 -21 -164
-134 -156 -33 3 -72 50 -78 97 -4 24 0 64 9 100 9 32 16 74 16 92 0 33 0 33
-50 33 -59 0 -60 0 -25 -106 34 -103 33 -138 -4 -175 -33 -32 -47 -35 -88 -17
-66 28 -87 78 -74 172 6 45 5 70 -5 94 l-13 32 -1055 0 -1056 0 0 -39z m9667
-527 c36 -23 43 -54 43 -197 1 -96 5 -139 15 -157 8 -14 14 -44 15 -67 0 -34
-5 -46 -31 -67 -17 -14 -43 -26 -58 -26 -26 0 -111 53 -111 70 0 4 -18 19 -39
34 -22 15 -44 40 -51 54 -6 15 -30 41 -52 57 -23 17 -50 42 -60 56 -16 22 -17
29 -7 52 7 15 15 27 19 27 3 0 31 21 61 47 30 25 68 52 86 59 18 8 38 24 44
36 27 50 72 58 126 22z m-1362 -24 c36 -34 39 -69 15 -159 l-22 -81 20 -53
c33 -82 36 -127 12 -164 -28 -46 -62 -44 -133 8 -32 22 -57 44 -57 48 0 5 -35
44 -79 87 -116 117 -117 141 -12 209 37 24 78 60 92 79 13 19 33 40 44 45 30
16 94 5 120 -19z m295 -10 l41 -41 -3 -107 c-2 -59 1 -141 5 -182 8 -70 6 -78
-15 -110 -15 -23 -38 -40 -65 -49 -37 -13 -45 -13 -82 3 -62 28 -74 64 -66
191 6 86 4 111 -10 149 -23 60 -14 109 30 153 28 28 40 33 79 33 40 0 51 -5
86 -40z m370 25 c72 -2 139 -22 168 -48 30 -28 41 -72 48 -207 6 -97 4 -121
-10 -148 -19 -36 -106 -109 -142 -118 -13 -3 -74 -2 -134 3 -124 11 -150 23
-182 84 -17 33 -18 49 -8 205 l10 169 31 26 c40 34 86 49 129 42 19 -4 60 -7
90 -8z m-6361 -16 c11 -12 18 -29 16 -38 -8 -38 -26 -72 -50 -93 -14 -12 -25
-25 -25 -29 0 -4 14 -21 30 -39 34 -37 38 -68 12 -100 -29 -36 -109 -34 -134
3 -6 11 -15 -13 -21 -59 -4 -30 -53 -91 -87 -109 -37 -19 -77 -21 -122 -6 -29
9 -42 10 -59 0 -24 -12 -98 -8 -159 10 -51 15 -74 59 -75 142 -1 40 -9 82 -19
103 -15 32 -15 39 -2 63 39 74 154 119 223 86 30 -14 36 -14 65 0 29 14 36 14
87 -5 66 -24 94 -47 119 -99 l19 -38 32 40 c19 23 30 46 27 57 -20 67 -13 90
39 117 41 20 61 19 84 -6z m182 -5 c8 -8 20 -14 26 -14 13 0 33 -39 35 -72 3
-37 -21 -78 -46 -79 -67 -4 -72 -1 -134 80 -36 47 -19 83 48 104 20 7 51 -2
71 -19z m3535 4 c30 -14 41 -66 42 -196 0 -63 6 -136 13 -163 12 -44 11 -54
-5 -84 -31 -56 -110 -69 -164 -25 -27 22 -52 89 -52 139 0 33 -5 40 -36 57
-49 26 -74 62 -67 96 5 28 133 161 176 185 23 12 56 9 93 -9z m310 3 c72 -33
74 -41 74 -252 l0 -186 -45 -42 c-56 -52 -92 -54 -158 -10 -57 37 -62 54 -53
171 3 53 1 108 -5 136 -17 73 -13 101 18 135 36 38 83 67 108 67 11 0 39 -9
61 -19z m336 8 c37 -20 45 -64 47 -261 2 -162 0 -190 -15 -213 -40 -61 -117
-69 -167 -17 -39 41 -46 71 -40 171 4 60 2 110 -7 145 -16 68 -9 96 39 146 33
34 44 40 80 40 23 0 51 -5 63 -11z m3018 -4 c44 -23 60 -63 61 -152 0 -43 4
-116 9 -163 12 -124 -16 -176 -99 -187 -32 -4 -49 0 -85 21 -24 14 -48 36 -52
48 -3 11 -3 69 0 127 6 95 5 110 -14 143 -28 53 -25 72 17 119 55 61 105 74
163 44z m-2320 -21 c52 -18 90 -39 121 -68 63 -56 82 -96 82 -172 0 -125 -70
-204 -186 -212 -34 -2 -66 -8 -71 -13 -17 -15 -91 -10 -137 10 -24 10 -64 22
-89 26 -36 6 -55 18 -101 65 -88 87 -110 197 -51 255 25 26 100 65 122 65 6 0
30 10 53 22 104 56 149 60 257 22z m-3391 -24 c47 -24 71 -70 72 -142 1 -65 8
-83 34 -83 18 0 20 -6 18 -61 -3 -67 -16 -114 -33 -114 -6 0 -25 -16 -42 -36
-57 -65 -114 -79 -198 -49 -31 11 -61 13 -106 9 -56 -6 -68 -4 -134 27 l-72
33 -24 -29 c-50 -64 -52 -65 -104 -65 -30 0 -66 8 -88 19 -69 34 -88 34 -137
1 -50 -35 -98 -39 -166 -14 -36 12 -51 13 -87 3 -58 -16 -102 -2 -172 56 -30
25 -62 47 -71 50 -35 11 -50 86 -24 121 19 25 19 43 0 64 -9 10 -18 33 -21 51
-5 29 -1 40 28 70 51 54 84 72 129 71 89 -4 121 -47 112 -149 -6 -66 20 -177
39 -171 7 3 18 24 26 47 11 34 12 51 3 81 -18 61 -14 123 12 161 19 29 29 34
67 37 68 4 103 -23 131 -97 12 -34 25 -61 30 -61 4 0 27 36 50 80 46 85 66
100 139 100 47 0 75 -21 76 -57 1 -44 16 -123 24 -128 4 -2 13 15 21 38 8 24
35 64 64 95 46 47 56 52 93 52 24 0 59 -7 78 -15 34 -14 76 -12 99 5 31 24 89
24 134 0z m-3064 -91 c95 6 112 6 143 -1 24 -6 31 -4 26 4 -5 8 0 9 17 4 13
-4 30 -8 37 -8 6 -1 12 -5 12 -10 0 -5 10 -22 22 -39 20 -27 27 -29 60 -24 43
8 59 -10 79 -86 10 -39 10 -53 -2 -85 -18 -46 -73 -88 -98 -75 -11 7 -25 2
-50 -16 -40 -31 -126 -56 -196 -57 -27 -1 -61 -7 -73 -14 -30 -17 -134 -7
-174 16 -38 22 -48 52 -48 151 0 93 -5 105 -55 136 -27 17 -28 19 -10 25 20 7
20 7 0 12 -18 5 -18 6 3 7 12 0 22 -3 22 -9 0 -19 24 -10 56 21 53 51 73 59
134 52 30 -4 73 -6 95 -4z m1591 -236 c41 -26 27 -102 -18 -97 -13 1 -28 3
-35 3 -20 2 -43 31 -43 56 0 47 51 68 96 38z m-1644 -402 c24 -5 38 -5 40 1 5
14 66 -13 104 -45 26 -22 38 -47 60 -124 5 -20 32 -15 39 7 4 12 18 23 35 26
15 4 33 16 40 28 6 11 26 31 45 42 26 18 40 20 71 14 54 -11 106 -35 128 -59
11 -12 25 -21 32 -21 7 0 27 -23 45 -50 18 -28 36 -47 40 -43 3 5 12 25 19 46
22 70 102 137 163 137 12 0 27 4 32 9 15 14 84 32 140 38 54 5 222 -33 283
-64 29 -15 92 -99 92 -123 0 -20 31 -9 69 25 21 19 43 35 49 35 15 0 19 -30 9
-68 -6 -23 -3 -49 7 -86 27 -93 15 -195 -25 -217 -12 -6 -43 -9 -70 -7 -29 2
-50 -1 -53 -8 -2 -6 2 -103 10 -215 15 -212 9 -298 -20 -328 -8 -7 -37 -16
-65 -19 -45 -4 -53 -2 -79 25 -37 37 -46 92 -33 206 9 73 7 94 -6 131 -22 60
-5 117 44 147 54 34 69 80 33 99 -17 9 -28 7 -58 -12 -32 -20 -50 -23 -132
-23 -90 0 -95 -1 -98 -22 -2 -12 5 -27 15 -35 11 -7 29 -30 42 -50 19 -33 23
-56 28 -166 7 -166 -1 -233 -33 -272 -50 -59 -122 -49 -196 27 -36 38 -34 18
-29 256 3 117 24 164 89 202 66 39 18 92 -75 82 -49 -5 -57 -3 -87 24 -19 16
-39 42 -46 59 -16 38 -28 38 -70 0 -44 -39 -82 -40 -109 -1 -25 34 -27 75 -6
124 25 59 20 84 -17 96 -63 20 -118 -1 -118 -44 0 -12 14 -39 30 -60 39 -49
41 -71 13 -137 -19 -43 -44 -52 -103 -39 -49 11 -42 3 -74 74 -15 31 -31 57
-36 57 -4 0 -33 -29 -65 -65 -31 -36 -63 -65 -70 -65 -7 0 -18 -7 -25 -15 -7
-8 -22 -15 -34 -15 -11 0 -49 -9 -84 -20 -67 -21 -139 -19 -178 7 -11 7 -41
15 -65 17 -24 2 -84 7 -134 10 -181 15 -209 41 -212 204 -1 57 2 111 7 120 4
9 16 34 25 54 22 51 63 71 152 74 40 1 76 5 82 8 5 4 42 9 83 12 40 3 98 8
128 12 53 7 104 3 182 -17z m6895 -127 c29 -5 71 -48 77 -77 3 -12 8 -55 11
-96 8 -89 12 -101 36 -101 17 0 19 8 19 95 0 112 14 149 64 170 25 11 42 12
70 4 57 -16 70 -46 69 -152 -1 -62 4 -103 15 -131 l16 -40 12 29 c8 17 13 73
14 131 0 113 14 145 67 159 94 26 143 -22 143 -142 0 -74 10 -99 33 -90 11 4
16 27 18 91 4 82 6 88 34 111 68 54 125 40 167 -43 16 -31 29 -79 33 -118 7
-58 10 -66 37 -80 16 -9 47 -14 71 -12 35 2 43 7 45 25 4 26 -41 73 -70 73
-10 0 -24 11 -30 26 -11 23 -8 28 28 64 38 37 177 110 208 110 27 0 65 -23 83
-49 16 -23 18 -57 21 -269 3 -220 2 -246 -14 -263 -31 -34 -65 -24 -140 42
-82 73 -207 152 -231 147 -11 -2 -20 -16 -24 -38 -4 -20 -21 -47 -40 -63 -28
-25 -37 -28 -73 -23 -32 5 -50 16 -82 51 -22 25 -43 45 -46 45 -3 0 -11 -14
-18 -30 -17 -42 -47 -60 -97 -60 -39 0 -49 6 -97 53 l-54 52 -23 -45 c-46 -86
-122 -93 -192 -17 l-37 41 -43 -42 c-51 -50 -86 -59 -157 -38 -47 14 -58 14
-97 1 -69 -24 -143 5 -183 71 -20 32 -21 43 -15 167 3 72 8 144 11 158 7 36
77 107 111 112 31 4 216 -2 250 -9z m-4072 -51 c-28 -25 -102 -97 -165 -159
-94 -92 -119 -112 -137 -108 -14 4 -33 -1 -49 -13 -23 -17 -33 -18 -61 -10
-26 8 -36 7 -50 -6 -28 -24 -72 -38 -91 -28 -9 5 -33 11 -53 14 -47 6 -158 67
-183 101 -44 59 -11 139 63 152 20 4 50 13 68 21 18 7 47 13 65 13 19 0 44 8
58 17 39 27 229 41 448 32 26 -1 65 5 87 13 22 9 42 14 45 11 3 -2 -18 -25
-45 -50z m5666 37 c43 -23 49 -58 49 -265 l0 -197 -29 -29 c-50 -50 -136 -34
-176 34 -15 24 -18 58 -19 204 l-2 175 35 38 c45 48 99 63 142 40z m-2100 -19
c22 -18 24 -26 22 -113 -2 -128 -2 -182 0 -256 2 -58 0 -66 -26 -88 -35 -30
-77 -31 -133 -3 -36 17 -49 19 -81 10 -57 -16 -109 3 -140 53 -24 37 -25 45
-19 130 3 54 2 106 -5 128 -11 44 8 98 45 123 26 19 96 19 132 1 29 -16 50
-10 74 18 19 23 101 21 131 -3z m2624 -17 c39 -42 41 -84 9 -225 -4 -16 2 -44
16 -73 28 -62 24 -112 -11 -139 -48 -35 -80 -18 -211 116 -140 141 -142 148
-61 211 190 149 213 159 258 110z m-7120 -164 c9 -10 19 -43 22 -73 5 -49 3
-56 -17 -67 -21 -11 -21 -12 19 -46 22 -19 42 -42 45 -52 3 -9 26 -30 51 -45
97 -61 110 -147 40 -274 -20 -36 -41 -71 -48 -77 -62 -60 -204 -101 -319 -92
-124 9 -195 61 -217 156 -11 50 -5 237 10 286 5 17 23 43 38 58 38 37 106 40
169 7 l42 -22 37 36 c20 19 40 35 45 35 14 0 9 40 -7 46 -11 4 -15 21 -15 56
0 82 58 120 105 68z m-2682 -62 c5 -37 -7 -69 -26 -65 -7 1 -11 -4 -9 -10 3
-17 -3 -16 -22 2 -12 13 -13 21 -4 40 6 14 18 25 25 25 10 0 12 6 8 20 -4 14
-2 20 8 20 9 0 17 -13 20 -32z m-263 -33 c17 -16 30 -32 30 -36 0 -4 -14 -21
-31 -38 l-31 -31 -29 21 c-34 24 -46 61 -31 94 15 32 53 27 92 -10z m1746
-120 c40 -26 57 -82 67 -220 15 -202 14 -228 -5 -258 -25 -37 -88 -55 -136
-37 -51 18 -99 51 -113 76 -6 12 -23 28 -37 35 -22 12 -26 12 -30 -1 -3 -8
-24 -34 -47 -57 -32 -32 -51 -43 -76 -45 -19 0 -45 -2 -59 -4 -166 -20 -207
-13 -268 47 -44 43 -55 93 -54 241 0 130 7 157 45 191 36 31 111 25 142 -11
21 -24 22 -33 18 -136 -4 -97 -2 -117 16 -158 11 -27 25 -48 30 -48 6 0 8 6 5
14 -3 8 0 24 6 36 7 13 12 67 12 132 -1 151 16 187 91 195 76 9 113 -20 148
-117 l17 -45 7 30 c33 129 135 194 221 140z m-1018 -54 c20 -10 52 -38 71 -61
31 -39 34 -47 34 -114 0 -55 -5 -83 -21 -117 -28 -58 -76 -107 -110 -115 -15
-3 -51 -12 -81 -21 -99 -29 -252 1 -327 64 -74 62 -69 204 8 275 53 47 73 59
150 84 95 30 221 33 276 5z m7970 -651 c57 -35 65 -85 30 -185 -21 -59 -22
-67 -8 -112 8 -26 14 -70 15 -96 0 -39 -5 -53 -24 -68 -37 -30 -75 -24 -123
18 -218 191 -232 216 -155 290 23 22 63 55 89 72 27 18 55 45 63 61 23 45 61
52 113 20z m231 -1 c53 -30 73 -63 80 -135 8 -70 21 -97 21 -43 0 45 44 133
79 158 43 31 90 35 135 12 34 -18 45 -19 77 -10 54 17 99 4 145 -39 48 -47 62
-90 71 -215 7 -111 -6 -147 -68 -191 -48 -34 -106 -43 -158 -26 -30 10 -43 10
-61 0 -35 -19 -102 -4 -151 34 -45 34 -80 51 -77 38 3 -17 -23 -62 -43 -73
-30 -16 -115 -6 -139 16 -18 16 -20 31 -20 149 -1 88 -6 144 -15 171 -19 51
-19 99 0 135 24 46 66 52 124 19z m-7394 -1 c36 -16 101 -117 109 -169 l7 -42
47 45 c60 58 80 68 137 68 42 0 51 4 81 38 44 51 93 66 186 59 100 -7 139 -21
163 -57 25 -37 31 -37 40 -2 4 15 16 36 28 47 41 38 153 16 186 -37 7 -11 18
-58 26 -105 15 -92 29 -112 77 -113 15 0 33 8 40 19 16 23 48 37 101 46 20 3
37 9 37 14 0 15 79 34 120 28 57 -7 157 -57 164 -82 10 -35 6 -215 -4 -236 -9
-15 -15 -17 -30 -9 -16 9 -35 4 -94 -25 -85 -41 -96 -42 -121 -15 -26 29 -42
25 -93 -25 -50 -50 -61 -52 -131 -29 -41 13 -56 26 -95 80 -34 48 -52 64 -70
64 -47 0 -87 13 -109 36 -31 33 -40 30 -65 -21 -24 -49 -58 -72 -123 -80 -24
-3 -67 -11 -95 -17 -45 -9 -60 -7 -134 16 -46 14 -95 26 -109 26 -31 0 -85 31
-122 71 -15 16 -34 29 -42 29 -8 0 -30 -19 -48 -42 -89 -112 -120 -123 -317
-115 -123 4 -158 9 -216 30 -167 61 -216 204 -121 351 45 70 71 91 135 113 76
25 163 23 220 -4 l45 -22 35 33 c19 19 42 36 50 39 27 10 78 7 105 -5z m6592
-25 c38 -47 43 -80 40 -266 l-2 -179 -28 -24 c-41 -35 -99 -33 -138 5 l-29 29
2 204 c0 112 5 213 9 226 19 50 108 53 146 5z m-260 12 c32 -22 46 -74 34
-126 -15 -64 -13 -157 4 -213 26 -86 -9 -146 -86 -146 -44 0 -77 24 -121 88
-29 42 -31 52 -30 116 1 39 -3 92 -9 119 -13 54 -7 67 59 136 34 36 44 41 83
41 25 0 54 -7 66 -15z m2155 -14 c30 -27 33 -34 31 -83 -1 -29 -4 -126 -5
-216 -3 -149 -5 -165 -22 -178 -42 -31 -77 -16 -162 70 -33 33 -84 82 -112
109 -60 54 -79 91 -62 122 6 11 53 49 105 85 52 36 94 72 95 81 1 48 82 54
132 10z m-2597 -15 c54 -23 57 -37 53 -250 -3 -212 -5 -217 -64 -236 -40 -14
-72 -8 -101 17 -29 26 -32 42 -35 213 -3 175 8 216 66 251 37 23 38 23 81 5z
m-6754 -226 c50 -34 119 -101 135 -132 8 -15 14 -54 14 -86 0 -104 -58 -140
-148 -92 -20 10 -50 22 -65 25 -18 4 -35 18 -49 40 -25 43 -61 54 -101 32 -57
-33 -82 -15 -92 70 -7 58 21 114 75 151 31 21 43 23 116 20 64 -3 88 -9 115
-28z m2488 -727 c58 -218 95 -410 85 -449 -9 -37 -39 -44 -122 -28 -50 9 -80
11 -98 4 -41 -16 -80 -12 -141 16 -46 20 -62 23 -81 15 -31 -15 -93 -13 -114
3 -24 18 -38 60 -38 114 0 26 -5 102 -12 169 -13 139 -7 167 38 176 15 3 48
-1 72 -9 38 -11 49 -11 73 2 36 18 59 18 87 -2 12 -8 22 -13 22 -10 0 4 17 -3
37 -14 l37 -20 3 -76 c3 -84 15 -114 42 -114 27 0 40 44 47 159 11 163 31 182
63 64z m4988 16 c68 -32 76 -53 85 -224 5 -82 6 -164 3 -182 -8 -45 -49 -91
-95 -104 -34 -10 -47 -9 -98 10 -55 20 -62 20 -95 6 -61 -25 -111 -20 -152 16
-20 18 -43 45 -51 62 -18 35 -20 110 -4 152 7 19 9 57 6 100 -6 58 -3 75 11
97 20 29 59 62 98 82 39 21 237 10 292 -15z m-6683 7 c18 -8 46 -31 62 -51 26
-35 28 -43 28 -138 1 -89 -2 -107 -21 -138 -30 -48 -65 -63 -112 -48 -20 6
-40 15 -45 20 -26 23 -102 -4 -130 -45 -32 -50 -79 -83 -135 -97 -84 -21 -367
-17 -421 6 -8 3 -28 24 -45 45 -22 28 -44 43 -84 56 -63 20 -84 12 -89 -33 -4
-37 20 -62 43 -43 8 7 15 9 15 5 0 -4 6 -2 14 4 11 10 17 7 30 -11 20 -28 12
-35 -49 -41 -27 -3 -63 -7 -80 -10 -31 -5 -95 20 -95 37 -1 6 -9 29 -20 51
-23 49 -24 71 -5 109 8 15 15 45 15 66 0 54 34 75 104 65 94 -12 156 -14 156
-5 0 6 6 10 14 10 22 0 64 40 84 79 26 52 101 89 194 97 82 7 140 0 160 -19 7
-7 36 -23 63 -36 28 -13 61 -33 74 -43 37 -28 57 -22 103 33 36 43 102 88 131
89 4 0 23 -6 41 -14z m1819 -43 c-3 -48 -3 -48 11 -19 13 28 14 29 20 8 4 -12
5 -26 1 -31 -3 -6 3 -24 14 -42 18 -30 18 -34 4 -44 -18 -13 -10 -35 13 -35
20 0 17 -20 -3 -21 -17 -1 -17 -2 0 -6 9 -2 15 -8 12 -13 -3 -4 2 -24 10 -44
13 -29 13 -36 2 -36 -17 0 -18 -31 -1 -50 10 -12 10 -18 -1 -33 -7 -10 -16
-14 -19 -8 -3 5 0 12 6 14 9 4 8 6 -2 6 -11 1 -20 20 -29 64 -8 34 -16 66 -19
71 -2 4 -5 26 -6 48 -2 22 -7 43 -12 46 -15 12 -17 172 -2 172 2 0 2 -21 1
-47z m5223 25 c33 -16 48 -55 54 -143 4 -72 7 -80 25 -80 18 0 20 8 25 92 5
79 9 96 28 115 29 30 100 32 131 4 40 -36 70 -116 77 -201 4 -44 11 -86 16
-92 7 -9 3 -23 -11 -45 -11 -18 -30 -52 -42 -74 -27 -51 -70 -78 -107 -69 -46
11 -71 34 -82 75 -11 42 -34 46 -46 8 -3 -10 -19 -35 -36 -54 -26 -30 -36 -34
-78 -34 -64 0 -109 31 -134 93 l-20 47 22 74 c20 69 21 78 7 116 -23 65 -19
93 18 133 45 51 96 62 153 35z m-1047 2 c21 -10 51 -78 51 -112 0 -12 -7 -42
-16 -65 -14 -36 -15 -50 -5 -82 22 -76 6 -153 -38 -176 -45 -23 -115 -1 -131
40 -15 39 -12 103 7 142 15 33 15 37 -5 79 -32 65 -29 94 16 142 41 44 80 54
121 32z m2058 -24 l38 -34 -2 -202 c-1 -221 -3 -226 -65 -273 -34 -26 -87 -16
-131 23 l-32 28 -1 144 c0 79 -3 166 -7 193 -9 59 12 103 65 135 50 30 92 26
135 -14z m-356 -5 c30 -24 37 -84 38 -312 1 -230 -12 -265 -85 -234 -44 19
-233 210 -229 232 2 10 4 21 4 24 1 3 19 11 41 18 32 9 41 18 48 44 11 41 8
45 -42 68 -57 25 -60 59 -10 106 20 18 42 33 49 33 7 0 23 9 36 20 32 26 118
27 150 1z m845 -12 c24 -20 33 -74 23 -149 -5 -39 -11 -75 -14 -80 -3 -5 -2
-18 4 -28 13 -25 21 -142 11 -169 -11 -27 -43 -37 -71 -23 -12 7 -47 35 -79
63 -31 29 -80 71 -109 95 -108 91 -101 125 50 238 92 68 107 75 137 70 19 -3
40 -10 48 -17z m-8015 -135 l50 -27 31 23 c29 22 32 22 58 6 16 -9 39 -16 52
-16 51 0 93 -86 83 -166 -10 -84 -54 -127 -164 -160 -72 -22 -128 -18 -196 15
-98 47 -142 118 -124 202 19 85 31 110 63 130 43 26 87 24 147 -7z m1369 12
c0 -2 -7 -6 -15 -10 -8 -3 -15 -1 -15 4 0 6 7 10 15 10 8 0 15 -2 15 -4z m324
-351 c1 -66 5 -125 8 -130 3 -6 9 -62 12 -125 5 -110 55 -351 83 -405 11 -22
33 -87 33 -99 0 -16 -30 23 -49 65 -28 59 -111 314 -116 353 -2 17 -9 51 -15
76 -19 72 -17 420 2 420 4 0 8 8 9 18 0 10 7 2 16 -18 11 -24 16 -71 17 -155z
m860 -513 c-1 -63 -18 -131 -30 -120 -3 3 -2 51 2 107 5 75 10 99 18 91 6 -6
10 -41 10 -78z m-1633 55 c52 -34 66 -72 74 -201 9 -143 -7 -208 -60 -255 -20
-17 -45 -33 -58 -36 -41 -10 -221 -12 -279 -3 -35 5 -74 4 -100 -1 -32 -7 -60
-6 -102 3 -40 10 -68 11 -90 5 -49 -15 -246 -11 -304 6 -63 19 -143 89 -165
145 -25 63 -18 185 14 236 30 50 66 83 107 100 38 17 227 12 279 -6 23 -8 37
-8 52 -1 25 14 186 14 212 1 14 -8 37 -8 76 0 41 7 74 7 115 -1 48 -10 61 -9
81 4 50 32 104 34 148 4z m4979 6 c28 -13 41 -14 75 -5 63 17 110 5 150 -36
40 -42 43 -52 48 -231 4 -100 1 -145 -10 -176 -16 -47 -46 -79 -81 -88 -29 -7
-115 18 -132 38 -11 13 -16 12 -42 -10 -16 -14 -39 -25 -51 -26 -50 -2 -93 4
-118 17 -34 17 -72 95 -71 143 8 281 7 276 31 310 25 34 109 81 147 81 11 0
36 -7 54 -17z m-4552 -11 c37 -11 68 -26 77 -38 34 -49 120 -295 131 -372 l6
-50 -53 -11 c-80 -15 -286 -13 -318 4 -37 19 -78 61 -96 95 -22 42 -29 133
-17 220 12 84 24 98 117 145 59 29 70 30 153 7z m4135 -34 c14 -14 17 -28 13
-52 -9 -46 -9 -146 -1 -262 l7 -101 -30 -34 c-37 -42 -80 -43 -151 -3 -47 27
-51 27 -69 11 -11 -10 -35 -17 -59 -17 -33 0 -46 6 -65 29 -45 52 -53 86 -39
155 7 33 13 96 14 138 2 70 5 79 31 107 24 25 34 29 67 26 22 -3 48 -9 58 -14
14 -8 25 -6 44 9 14 11 36 24 49 30 34 14 110 2 131 -22z m993 11 c52 -24 63
-52 62 -158 0 -75 7 -91 43 -91 22 0 29 29 29 118 0 70 11 109 34 124 6 4 32
8 58 8 35 0 53 -6 71 -22 32 -30 57 -107 57 -178 0 -44 6 -65 24 -93 13 -19
21 -39 18 -43 -8 -8 -4 -6 55 21 31 14 44 27 49 48 6 29 -9 57 -31 57 -11 0
-27 25 -39 62 -3 12 9 29 42 55 26 21 49 41 52 44 12 15 72 39 97 39 15 0 42
-11 58 -24 l30 -24 3 -224 c3 -249 -4 -300 -46 -306 -13 -2 -36 2 -52 8 -36
15 -210 192 -210 214 0 9 -3 16 -7 16 -11 0 -56 -58 -77 -97 -9 -18 -25 -37
-35 -43 -48 -25 -127 4 -138 50 -7 28 -21 50 -34 50 -4 0 -23 -22 -40 -49 -37
-56 -62 -71 -122 -71 -48 0 -98 26 -123 65 -19 29 -20 50 -10 248 7 132 19
167 69 197 41 25 60 25 113 -1z m-7313 -5 c52 -26 146 -125 173 -181 26 -56
26 -56 107 -53 65 2 130 -30 152 -76 23 -49 16 -102 -16 -127 -50 -37 -148
-39 -183 -4 -15 15 -56 13 -56 -3 0 -4 -12 -15 -26 -25 -33 -21 -226 -31 -282
-14 -20 6 -76 14 -124 18 -139 12 -165 47 -175 244 -6 121 -6 122 20 153 53
63 328 109 410 68z m8337 -19 c33 -35 39 -83 40 -276 0 -187 -7 -225 -50 -264
-25 -23 -90 -24 -125 -1 -46 30 -56 72 -54 239 1 84 -1 159 -5 165 -4 7 -2 29
5 50 34 106 129 150 189 87z m496 12 c36 -31 42 -97 19 -203 -20 -93 -20 -82
-1 -166 23 -102 -2 -145 -71 -126 -40 11 -233 199 -252 246 -20 47 -4 73 76
130 38 26 88 68 113 94 51 53 76 59 116 25z m-8411 -9 c15 -12 34 -36 41 -55
38 -89 -85 -155 -157 -84 -83 84 23 212 116 139z m2661 -518 c41 -14 90 -22
130 -22 64 1 79 -11 27 -21 -52 -10 -218 33 -253 65 -11 10 -20 16 -20 13 0
-3 -16 11 -35 31 -19 19 -35 38 -35 40 0 2 27 -16 60 -40 33 -24 90 -54 126
-66z m-126 -1015 c0 -14 -4 -25 -9 -25 -12 0 -19 21 -13 38 8 21 22 13 22 -13z
m-20 -314 c-12 -102 -27 -190 -33 -196 -6 -7 -7 0 -3 20 4 17 11 107 16 200
11 188 15 211 32 181 8 -13 4 -69 -12 -205z m-3425 134 c161 -34 215 -51 231
-73 12 -18 24 -22 60 -20 25 1 50 -4 56 -10 25 -25 65 -14 98 28 44 55 81 74
116 58 24 -11 26 -15 20 -61 -8 -56 -32 -121 -85 -227 -21 -41 -41 -88 -45
-105 -12 -48 -48 -115 -63 -115 -7 0 -13 -6 -13 -14 0 -7 -7 -19 -15 -26 -8
-7 -17 -28 -21 -47 -11 -60 -30 -69 -140 -67 l-97 1 -43 46 c-49 53 -84 61
-127 27 l-25 -20 -21 36 c-12 19 -21 38 -21 41 0 3 -12 14 -26 25 -24 20 -43
53 -50 91 -3 13 3 17 24 17 20 0 30 7 40 30 22 48 -16 93 -58 70 -10 -5 -25
-7 -33 -4 -43 16 -49 150 -8 204 17 23 19 34 12 49 -8 14 -7 20 4 25 8 3 15
12 15 20 0 9 6 13 14 10 7 -3 29 4 47 15 21 12 44 18 59 15 14 -3 57 -11 95
-19z m-267 -16 c-10 -5 -15 -16 -12 -24 4 -9 0 -15 -9 -15 -10 0 -13 8 -9 25
3 17 11 25 26 25 19 -1 19 -2 4 -11z m-93 -152 c13 -75 14 -87 4 -93 -6 -3
-20 1 -32 9 -18 12 -22 24 -22 63 0 81 37 96 50 21z m3200 -102 c-8 -21 -18
-36 -20 -33 -3 3 2 22 10 43 9 20 18 35 21 32 3 -3 -2 -22 -11 -42z m-34 -72
c-12 -20 -14 -14 -5 12 4 9 9 14 11 11 3 -2 0 -13 -6 -23z m576 -75 c-3 -7 -5
-2 -5 12 0 14 2 19 5 13 2 -7 2 -19 0 -25z m253 -23 c0 -20 -28 -31 -42 -17
-8 8 -5 9 11 5 15 -4 21 -1 21 11 0 9 2 16 5 16 3 0 5 -7 5 -15z m50 0 c0 -8
-4 -15 -10 -15 -5 0 -10 7 -10 15 0 8 5 15 10 15 6 0 10 -7 10 -15z m-44 -50
c-22 -17 -66 -20 -66 -6 0 10 27 17 65 19 20 1 20 1 1 -13z m-279 -27 c-3 -8
-6 -5 -6 6 -1 11 2 17 5 13 3 -3 4 -12 1 -19z m-31 -266 c-9 -49 -20 -100 -25
-113 l-10 -24 0 28 c-1 29 26 189 37 217 13 37 12 -24 -2 -108z m381 -144 c-3
-8 -6 -5 -6 6 -1 11 2 17 5 13 3 -3 4 -12 1 -19z m-2340 -34 c16 -3 40 -14 53
-24 l25 -19 -50 -21 c-30 -13 -59 -19 -74 -15 -13 3 -37 1 -53 -6 -27 -11 -32
-10 -61 20 -27 26 -30 33 -17 41 8 5 26 10 40 10 14 0 32 5 40 10 17 11 54 13
97 4z m-1427 -29 c0 -9 -6 -12 -15 -9 -8 4 -15 10 -15 15 0 5 7 9 15 9 8 0 15
-7 15 -15z m1550 -6 c0 -18 2 -20 16 -9 12 11 18 10 31 -3 23 -23 12 -30 -28
-19 -24 6 -35 15 -37 30 -2 12 1 22 7 22 6 0 11 -10 11 -21z m-1325 -25 c-24
-18 -52 1 -34 22 8 10 16 11 32 2 20 -10 20 -11 2 -24z m-215 -8 c0 -8 -4 -18
-10 -21 -5 -3 -10 -4 -10 -1 0 2 -3 11 -6 20 -4 11 -1 16 10 16 9 0 16 -6 16
-14z m3292 -83 c-3 -16 -7 -22 -10 -15 -4 13 4 42 11 42 2 0 2 -12 -1 -27z
m-575 -111 c20 -13 26 -58 9 -75 -18 -18 -21 -37 -6 -37 6 0 10 -6 10 -14 0
-17 -32 -80 -42 -84 -5 -2 -8 -11 -8 -19 0 -18 -45 -105 -77 -149 -13 -17 -23
-36 -23 -41 0 -6 -6 -13 -14 -16 -7 -3 -17 -18 -21 -34 -3 -15 -21 -42 -38
-58 -18 -17 -39 -40 -47 -53 -8 -12 -19 -22 -25 -22 -6 0 -26 -16 -45 -35 -19
-19 -39 -35 -44 -35 -6 0 -26 -13 -44 -28 -17 -15 -49 -40 -69 -57 -80 -65
-83 -70 -70 -105 7 -18 52 -70 100 -117 l89 -85 66 5 c37 2 127 11 199 18 131
13 133 13 152 -8 11 -12 37 -31 58 -43 21 -12 52 -40 68 -63 17 -22 49 -50 72
-62 24 -12 71 -50 106 -84 34 -35 80 -73 101 -85 33 -18 41 -30 58 -85 11 -35
17 -69 14 -76 -2 -7 -26 -23 -51 -36 -26 -13 -52 -30 -59 -39 -7 -9 -29 -15
-58 -16 -26 -1 -58 -8 -70 -16 -16 -11 -30 -13 -47 -7 -17 7 -35 3 -68 -13
-43 -21 -45 -21 -89 -5 -44 16 -47 16 -85 -4 l-40 -20 -31 26 c-32 27 -38 28
-130 12 -22 -3 -29 1 -38 24 -16 39 -42 59 -82 66 -30 4 -39 1 -62 -23 -14
-16 -26 -24 -26 -18 0 5 4 14 10 20 14 14 -56 88 -76 80 -31 -12 -94 -18 -95
-10 -5 61 -12 100 -17 106 -4 4 -31 9 -61 10 -59 4 -62 7 -76 90 -5 31 -11 38
-41 48 -45 15 -88 52 -103 88 -11 27 -55 52 -92 52 -8 0 -25 19 -39 41 -38 62
-68 74 -185 74 -89 0 -106 -3 -157 -28 -65 -32 -122 -81 -116 -99 3 -7 21 -16
41 -19 21 -3 47 -17 59 -31 92 -101 98 -118 45 -118 -19 0 -60 -14 -92 -32
-33 -18 -72 -31 -86 -30 -15 1 -34 -5 -42 -13 -9 -8 -22 -12 -30 -9 -8 3 -18
1 -21 -4 -3 -6 -22 -8 -41 -5 -21 3 -53 -2 -75 -11 -23 -9 -52 -13 -69 -10
-45 9 -72 -1 -139 -51 -33 -25 -64 -45 -70 -45 -5 0 -25 -13 -43 -30 -19 -16
-59 -42 -89 -57 -30 -16 -58 -32 -62 -37 -10 -14 -65 13 -71 35 -3 11 -1 32 3
47 5 15 14 52 21 82 6 30 20 73 30 94 11 22 19 46 19 53 0 7 4 21 9 31 5 9 30
60 55 112 68 142 158 297 186 320 3 3 23 26 44 52 34 42 110 98 187 136 14 7
39 26 56 42 71 67 278 150 372 150 24 0 98 -14 165 -31 l121 -32 99 52 c54 29
108 61 119 72 11 10 24 19 29 19 11 0 131 82 145 100 7 8 13 11 13 6 0 -5 7
-2 16 5 17 14 44 30 84 51 28 14 41 25 103 80 23 21 48 38 55 38 6 0 12 5 12
10 0 6 6 10 14 10 8 0 16 7 20 15 3 8 12 12 21 9 9 -4 17 1 21 10 10 25 84 60
121 57 20 -1 39 4 49 13 17 17 32 20 51 8z m-3233 -2289 l29 -26 -7 -100 c-4
-54 -3 -97 1 -95 49 23 83 43 83 50 0 4 -9 12 -19 17 -18 10 -46 69 -37 78 8
8 84 -36 90 -52 20 -54 -6 -105 -73 -139 -28 -15 -38 -16 -62 -5 -17 6 -34 20
-39 30 -12 21 -14 269 -2 269 4 0 20 -12 36 -27z"/>
<path d="M8918 9553 c-3 -66 7 -133 21 -133 14 0 31 49 31 90 0 51 -8 70 -31
70 -14 0 -19 -8 -21 -27z"/>
<path d="M2110 8360 c0 -5 5 -10 11 -10 5 0 7 5 4 10 -3 6 -8 10 -11 10 -2 0
-4 -4 -4 -10z"/>
<path d="M7902 8608 c-7 -7 -12 -38 -12 -70 0 -45 4 -60 16 -65 25 -9 44 24
44 77 0 41 -12 70 -30 70 -3 0 -11 -5 -18 -12z"/>
<path d="M7330 8533 c-37 -31 -35 -61 8 -105 33 -36 47 -35 66 4 20 39 20 62
0 93 -23 35 -40 37 -74 8z"/>
<path d="M2866 8198 c-13 -41 -14 -85 -5 -129 10 -45 13 -49 26 -36 19 19 29
127 14 155 -13 24 -30 29 -35 10z"/>
<path d="M8070 6500 c-15 -35 -9 -135 8 -152 21 -21 36 8 40 76 6 92 -22 138
-48 76z"/>
<path d="M1072 6458 c-31 -31 -2 -128 37 -128 32 0 42 80 15 118 -17 25 -34
28 -52 10z"/>
<path d="M3406 6503 c-11 -11 -6 -23 9 -23 8 0 15 4 15 9 0 13 -16 22 -24 14z"/>
<path d="M8012 5515 c-17 -38 -15 -140 4 -177 22 -43 36 -24 42 60 8 120 -17
182 -46 117z"/>
<path d="M7332 5437 c-30 -20 -33 -26 -29 -60 6 -41 60 -102 83 -93 19 7 45
63 46 97 1 30 -35 80 -56 78 -6 0 -26 -10 -44 -22z"/>
<path d="M66 9891 c-4 -7 -5 -15 -2 -18 9 -9 19 4 14 18 -4 11 -6 11 -12 0z"/>
<path d="M6595 6302 c-72 -45 -213 -224 -334 -426 -90 -149 -110 -194 -92
-205 6 -4 13 -29 16 -57 l5 -49 -10 40 c-6 22 -14 43 -19 48 -13 13 -51 -157
-51 -231 0 -135 57 -239 157 -288 52 -26 59 -27 117 -17 145 25 248 112 333
283 29 58 62 141 73 185 76 300 37 615 -88 703 -43 31 -73 35 -107 14z"/>
<path d="M7624 3524 c-16 -19 -42 -42 -59 -51 -16 -9 -36 -22 -44 -30 -12 -13
-12 -16 0 -24 8 -5 20 -7 27 -4 8 3 22 5 33 5 11 0 19 7 19 16 0 8 16 32 35
52 19 20 35 42 35 49 0 26 -18 21 -46 -13z"/>
<path d="M215 3520 c3 -5 1 -19 -5 -31 -16 -29 -6 -35 24 -15 24 15 25 17 9
36 -18 20 -39 28 -28 10z"/>
<path d="M10103 2807 c-43 -11 -97 -32 -120 -47 -22 -16 -58 -34 -79 -41 -23
-9 -48 -28 -63 -51 -21 -30 -33 -37 -58 -38 -30 0 -63 -21 -63 -40 0 -13 -67
-40 -84 -34 -19 7 -56 -22 -56 -44 0 -11 -11 -13 -59 -7 -76 9 -99 -3 -93 -45
6 -41 -13 -63 -42 -48 -11 6 -25 17 -29 24 -10 17 -57 18 -92 2 -28 -13 -31
-21 -11 -37 8 -6 19 -25 26 -42 13 -30 13 -30 74 -24 54 5 68 3 125 -25 35
-17 76 -41 92 -54 l28 -24 52 26 52 26 22 -26 c13 -15 25 -33 27 -40 4 -11 8
-11 21 1 9 7 29 14 44 16 34 3 83 25 83 37 0 4 7 8 15 8 8 0 15 7 15 15 0 8
-5 15 -11 15 -5 0 -7 4 -4 10 3 5 0 7 -9 4 -8 -3 -12 -12 -10 -19 10 -24 -16
-26 -27 -2 -19 41 31 97 87 97 22 0 16 -17 -8 -24 l-23 -7 25 -11 25 -11 -25
-7 c-14 -5 -19 -8 -12 -9 7 -1 11 -5 7 -10 -10 -18 16 -23 34 -7 10 9 21 13
24 9 4 -3 7 -1 7 5 0 7 7 12 15 12 9 0 19 9 23 19 4 11 12 21 17 23 6 2 10 15
10 29 1 26 0 26 -32 12 -30 -12 -34 -12 -40 3 -10 28 46 59 62 34 3 -5 13 -6
22 -3 12 5 15 2 10 -9 -4 -11 1 -18 15 -21 11 -3 17 -10 13 -16 -3 -6 -1 -11
4 -11 18 0 13 28 -6 39 -10 5 -15 12 -12 15 3 3 15 -3 27 -14 25 -24 32 -25
32 -5 0 8 7 15 16 15 20 0 53 39 54 64 0 15 -6 17 -32 14 -18 -3 -41 -8 -50
-13 -11 -4 -18 -3 -18 4 0 13 43 32 77 34 23 2 23 4 23 133 l0 132 -29 4 c-16
2 -65 -4 -108 -15z m-293 -527 c0 -5 -8 -10 -17 -10 -15 0 -16 2 -3 10 19 12
20 12 20 0z"/>
<path d="M4085 2640 c-3 -5 -1 -10 4 -10 6 0 11 5 11 10 0 6 -2 10 -4 10 -3 0
-8 -4 -11 -10z"/>
<path d="M10218 1929 c-24 -13 -23 -35 2 -61 l20 -22 0 47 c0 26 -1 47 -2 47
-2 0 -11 -5 -20 -11z"/>
</g>
</svg>
